<svg aria-hidden="true" style="position: absolute; width: 0; height: 0; overflow: hidden;" version="1.1" xmlns="http://www.w3.org/2000/svg" xmlns:xlink="http://www.w3.org/1999/xlink">
<defs>
<symbol id="icon-artzo" viewBox="0 0 130 32">
<path d="M89.71 23.050c1.31 0.017 2.611-0.236 3.818-0.743 1.19-0.532 2.332-1.163 3.413-1.889l5.343 6.999c-0.845 0.784-1.804 1.438-2.843 1.941-1.064 0.506-2.176 0.904-3.32 1.187-1.207 0.302-2.435 0.512-3.672 0.63-1.267 0.114-2.552 0.175-3.891 0.175-1.352-0.001-2.702-0.070-4.046-0.206-1.328-0.134-2.584-0.31-3.766-0.547-1.104-0.211-2.195-0.483-3.268-0.816-0.877-0.275-1.731-0.62-2.552-1.032l9.638-19.303h-7.189v-8.95h22.067l-10.531 22.555h0.799zM119.009 12.532c-0.285-0.667-0.709-1.265-1.245-1.755-0.544-0.51-1.181-0.913-1.878-1.187-0.717-0.3-1.489-0.454-2.267-0.454s-1.549 0.154-2.266 0.454c-1.382 0.542-2.498 1.597-3.112 2.942-0.315 0.672-0.477 1.405-0.477 2.147s0.163 1.475 0.477 2.147c0.615 1.345 1.731 2.4 3.112 2.942 0.717 0.3 1.488 0.454 2.266 0.454s1.549-0.154 2.267-0.454c0.696-0.274 1.334-0.677 1.878-1.187 0.536-0.49 0.961-1.088 1.245-1.755 0.301-0.676 0.456-1.408 0.456-2.147s-0.156-1.471-0.456-2.147zM127.827 20.511c-0.795 1.762-1.922 3.357-3.32 4.697-1.429 1.36-3.11 2.433-4.948 3.159-3.892 1.517-8.216 1.517-12.108 0-3.667-1.456-6.62-4.273-8.237-7.855-0.807-1.811-1.224-3.769-1.224-5.75s0.417-3.939 1.224-5.75c0.793-1.76 1.921-3.351 3.32-4.686 1.432-1.342 3.099-2.412 4.917-3.159 3.885-1.555 8.223-1.555 12.108 0 1.827 0.742 3.501 1.813 4.938 3.159 1.403 1.332 2.531 2.924 3.32 4.686 0.808 1.81 1.224 3.769 1.224 5.75s-0.417 3.939-1.224 5.75h0.011zM68.193 9.445v19.613h-9.389v-19.613h-5.789v-8.95h20.915v8.95h-5.737zM42.184 9.59c-0.207-0.212-0.456-0.378-0.731-0.49s-0.57-0.166-0.867-0.16h-1.452v4.377h1.452c0.297 0.006 0.592-0.048 0.867-0.16s0.524-0.279 0.731-0.49c0.21-0.2 0.376-0.441 0.49-0.707s0.173-0.552 0.173-0.841c0-0.289-0.059-0.575-0.173-0.842s-0.281-0.506-0.49-0.707v0.021zM48.678 19.024l6.536 9.982h-10.084c-1.459-2.064-2.594-3.613-3.403-4.645-0.539-0.722-1.121-1.411-1.743-2.064-0.363-0.351-0.581-0.465-0.643-0.351-0.069 0.112-0.105 0.241-0.104 0.372v6.689h-9.337v-28.511h11.433c1.382 0.002 2.746 0.308 3.994 0.898 1.252 0.565 2.389 1.356 3.351 2.333 1.033 0.994 1.855 2.184 2.417 3.499 0.525 1.27 0.789 2.632 0.778 4.005-0.003 1.416-0.281 2.818-0.82 4.129-0.547 1.363-1.353 2.607-2.376 3.664zM14.379 11.572l-1.598 6.111h3.112l-1.515-6.111zM19.224 29.006l-0.903-3.272h-7.947l-0.892 3.272h-9.483l9.234-28.511h10.24l9.234 28.511h-9.482z"></path>
</symbol>
<symbol id="icon-choc" viewBox="0 0 125 32">
<path d="M28.675 25.78c-1.651 1.89-3.685 3.413-5.967 4.469s-4.763 1.622-7.28 1.661c-9.267 0-15.428-5.91-15.428-15.61 0-10 7.558-16 13.287-16 1.281-0.067 2.56 0.17 3.731 0.692s2.2 1.313 3.003 2.308l1.005-2.43h6.865v12.3h-7.789c-0.131-2.82-1.528-5.47-4.634-5.47s-5.196 3.87-5.196 8.6c0 4.31 2.231 8.18 6.382 8.18 3.669 0 6.553-3.83 6.945-4.26l5.076 5.56zM44.596 0.83v5.74h-2.714v6.56h8.302v-6.56h-2.573v-5.74h14.202v5.74h-2.513v18.91h2.513v5.74h-14.202v-5.74h2.573v-6.57h-8.302v6.57h2.714v5.74h-14.172v-5.74h2.412v-18.91h-2.412v-5.74h14.172zM63.562 15.83c0-9.35 6.302-15.83 15.348-15.83 10.715 0 15.7 6.39 15.7 16.17s-5.518 15.83-15.398 15.83c-9.136 0-15.649-5.26-15.649-16.13v-0.040zM83.664 16.13c0-5.26-1.437-9.47-4.804-9.47-2.674 0-4.503 3.78-4.503 9.17 0 5.7 2.010 9.3 4.845 9.3s4.473-3.56 4.473-8.96l-0.010-0.040zM124.632 25.78c-1.651 1.89-3.685 3.413-5.967 4.469s-4.763 1.622-7.28 1.661c-9.267 0-15.428-5.91-15.428-15.61 0-10 7.559-16 13.288-16 1.282-0.067 2.56 0.17 3.731 0.692s2.2 1.313 3.004 2.308l1.005-2.43h6.865v12.3h-7.83c-0.131-2.82-1.528-5.47-4.633-5.47s-5.197 3.87-5.197 8.6c0 4.31 2.232 8.18 6.382 8.18 3.669 0 6.553-3.83 6.946-4.26l5.116 5.56z"></path>
</symbol>
<symbol id="icon-cupcakes" viewBox="0 0 120 32">
<path d="M31.876 4.068c0.281 0.31 0.362 0.55 0.251 0.73s-0.352 0.16-0.713 0c-0.348-0.183-0.732-0.289-1.125-0.31-0.343 0.007-0.677-0.115-0.934-0.34-0.728-0.721-1.601-1.28-2.562-1.64-0.994-0.382-2.041-0.611-3.105-0.68-1.067-0.080-2.14-0.030-3.195 0.15-0.98 0.157-1.936 0.439-2.844 0.84-1.073 0.499-2.085 1.12-3.015 1.85-1.178 0.878-2.293 1.837-3.336 2.87-1.161 1.116-2.248 2.305-3.256 3.56-1.020 1.286-1.947 2.643-2.773 4.060-0.803 1.333-1.475 2.74-2.010 4.2-0.475 1.318-0.739 2.701-0.784 4.1-0.021 0.338 0.075 0.673 0.271 0.95 0.184 0.232 0.427 0.411 0.703 0.52 0.304 0.109 0.622 0.173 0.945 0.19 0.305 0.015 0.61 0.015 0.914 0 1.030-0.106 2.042-0.338 3.015-0.69 1.016-0.357 2.006-0.781 2.964-1.27 0.978-0.5 1.902-1.030 2.773-1.59 0.884-0.55 1.688-1.090 2.412-1.61s1.367-1 1.919-1.39 0.955-0.7 1.236-0.88c0.42-0.304 0.889-0.534 1.387-0.68 0.358-0.045 0.701-0.168 1.005-0.36l1.286-0.82c0.301-0.17 0.482-0.22 0.533-0.15s0 0.23-0.261 0.46c-1.075 1.14-2.201 2.23-3.376 3.25s-2.371 2-3.587 3c-0.74 0.577-1.508 1.118-2.301 1.62-0.914 0.591-1.86 1.132-2.834 1.62-0.977 0.483-1.984 0.904-3.015 1.26-0.913 0.324-1.874 0.497-2.844 0.51-0.89 0.032-1.778-0.125-2.603-0.46-0.68-0.285-1.278-0.736-1.738-1.31-0.456-0.559-0.797-1.201-1.005-1.89-0.194-0.714-0.285-1.451-0.271-2.19 0.048-1.478 0.34-2.937 0.864-4.32 0.563-1.565 1.283-3.069 2.15-4.49 0.919-1.512 1.961-2.947 3.115-4.29 1.141-1.328 2.38-2.568 3.708-3.71 1.193-1.024 2.478-1.938 3.839-2.73 1.133-0.701 2.366-1.227 3.658-1.56 1.241-0.257 2.501-0.404 3.768-0.44 2.626-0.084 5.232 0.49 7.577 1.67 1.195 0.608 2.276 1.416 3.195 2.39zM20.481 19.118c-0.199 0.178-0.411 0.342-0.633 0.49-0.090 0-0.131 0-0.121-0.050 0.037-0.136 0.091-0.267 0.161-0.39 0.079-0.139 0.149-0.283 0.211-0.43 0.188-0.461 0.326-0.94 0.412-1.43 0.033-0.369 0.181-0.718 0.422-1l0.734-0.86c0.332-0.39 0.724-0.82 1.186-1.28 0.491-0.483 1.008-0.941 1.547-1.37 0.554-0.438 1.149-0.819 1.779-1.14 0.123-0.065 0.257-0.103 0.396-0.114s0.277 0.008 0.408 0.054c0.29 0.084 0.562 0.22 0.804 0.4 0.219 0.163 0.401 0.371 0.533 0.61 0.056 0.085 0.085 0.184 0.085 0.285s-0.030 0.2-0.085 0.285c-0.339 0.631-0.715 1.242-1.125 1.83-0.502 0.7-1.005 1.44-1.497 2.23s-0.945 1.59-1.357 2.4c-0.368 0.714-0.648 1.469-0.834 2.25 0.7-0.398 1.353-0.871 1.949-1.41 0.683-0.61 1.357-1.28 2.010-2s1.316-1.46 2.010-2.21l1.779-2.080c0.071-0.104 0.174-0.183 0.294-0.222s0.25-0.039 0.369 0.002c0.277 0.078 0.53 0.226 0.734 0.43 0.214 0.222 0.375 0.488 0.472 0.78 0.055 0.126 0.084 0.262 0.084 0.4s-0.029 0.274-0.084 0.4c-0.6 1.139-1.075 2.339-1.417 3.58 0.856-0.5 1.678-1.054 2.462-1.66 0.794-0.61 1.417-1.080 1.879-1.41 0.14-0.096 0.292-0.173 0.452-0.23l0.502-0.15c0.209-0.063 0.414-0.14 0.613-0.23 0.234-0.1 0.516-0.24 0.844-0.42 0.432-0.23 0.663-0.3 0.683-0.23s-0.11 0.27-0.422 0.57c-0.563 0.56-1.156 1.16-1.799 1.79s-1.286 1.25-1.949 1.85c-0.663 0.6-1.316 1.16-2.010 1.68-0.56 0.469-1.166 0.881-1.809 1.23-0.091 0.055-0.194 0.089-0.3 0.099s-0.213-0.003-0.313-0.039c-0.236-0.064-0.46-0.166-0.663-0.3-0.21-0.132-0.394-0.301-0.543-0.5-0.128-0.156-0.202-0.349-0.211-0.55-0.040-0.406-0.033-0.816 0.020-1.22-0.663 0.69-1.357 1.34-2.080 2-0.763 0.643-1.576 1.225-2.432 1.74-0.281 0.134-0.595 0.186-0.904 0.15-0.403-0.029-0.801-0.106-1.186-0.23-0.365-0.124-0.705-0.31-1.005-0.55-0.138-0.114-0.249-0.258-0.324-0.421s-0.112-0.34-0.108-0.519c-0.025-0.437 0.033-0.875 0.171-1.29 0.151-0.486 0.329-0.963 0.533-1.43 0.221-0.5 0.462-1 0.734-1.47l0.744-1.37c-0.482 0.46-0.955 0.91-1.417 1.37s-0.955 0.92-1.387 1.3zM39.915 15.268c-0.633 0.74-1.226 1.38-1.728 1.94-0.32 0.408-0.754 0.714-1.246 0.88-0.211 0.013-0.422 0.013-0.633 0-0.235 0.013-0.464 0.085-0.663 0.21-0.305 0.145-0.589 0.33-0.844 0.55-0.243 0.205-0.498 0.396-0.764 0.57-0.181 0.12-0.211 0.070-0.101-0.13s0.523-0.74 1.206-1.6c1.105-1.373 2.171-2.707 3.195-4 0.954-1.209 1.843-2.467 2.663-3.77 0.061-0.079 0.145-0.137 0.24-0.168s0.197-0.031 0.293-0.002c0.236 0.053 0.463 0.14 0.673 0.26 0.249 0.117 0.471 0.284 0.653 0.49 0.181 0.21 0.261 0.38 0.231 0.53-0.131 0.41-0.241 0.81-0.342 1.2s-0.191 0.8-0.271 1.2c0.775-0.536 1.667-0.879 2.603-1 0.495-0.048 0.994 0.046 1.437 0.27 0.464 0.22 0.891 0.51 1.266 0.86 0.345 0.313 0.64 0.678 0.874 1.080 0.189 0.281 0.29 0.612 0.291 0.95-0.041 0.813-0.336 1.592-0.844 2.23-0.516 0.651-1.137 1.212-1.839 1.66 0.813-0.261 1.6-0.596 2.351-1 0.633-0.36 1.166-0.68 1.608-1s0.824-0.55 1.136-0.76c0.269-0.203 0.582-0.34 0.914-0.4 0.127-0.012 0.255-0.012 0.382 0 0.112-0.004 0.221-0.031 0.322-0.080 0.145-0.068 0.28-0.156 0.402-0.26l0.653-0.54c0.181-0.17 0.291-0.23 0.342-0.17s0.050 0.12 0 0.17c-0.577 0.919-1.251 1.774-2.010 2.55-0.8 0.838-1.678 1.598-2.623 2.27-0.93 0.661-1.923 1.231-2.964 1.7-0.978 0.436-2.019 0.716-3.085 0.83-0.234 0.020-0.469-0.004-0.693-0.070-0.341-0.083-0.676-0.187-1.005-0.31-0.314-0.115-0.615-0.267-0.894-0.45-0.224-0.134-0.414-0.319-0.553-0.54l-0.161 0.42c-0.301 0.84-0.613 1.7-0.914 2.57s-0.643 1.75-1.005 2.63c-0.362 0.865-0.771 1.71-1.226 2.53-0.436 0.801-0.955 1.555-1.547 2.25-0.070 0.073-0.157 0.127-0.254 0.157s-0.2 0.034-0.299 0.013c-0.248-0.052-0.471-0.186-0.633-0.38-0.22-0.25-0.384-0.543-0.482-0.86-0.114-0.396-0.145-0.812-0.090-1.22 0.271-2.042 0.851-4.031 1.718-5.9 0.933-2.067 1.969-4.086 3.105-6.050 0.121-0.23 0.261-0.46 0.402-0.69 0.132-0.224 0.277-0.441 0.432-0.65l0.322-0.97zM46.687 14.318c-1.075 0.029-2.107 0.424-2.924 1.12-0.831 0.702-1.558 1.516-2.16 2.42-0.127 0.507-0.248 0.997-0.362 1.47-0.121 0.47-0.251 1-0.402 1.46l0.221-0.11c0.616-0.272 1.202-0.607 1.748-1 0.659-0.442 1.278-0.94 1.849-1.49 0.581-0.541 1.078-1.165 1.477-1.85 0.373-0.607 0.565-1.308 0.553-2.020zM54.264 20.908c0.928-0.033 1.844-0.215 2.713-0.54 0.897-0.331 1.761-0.742 2.582-1.23 0.826-0.494 1.618-1.042 2.372-1.64 0.754-0.6 1.437-1.16 2.010-1.7 0.059-0.062 0.131-0.111 0.211-0.144s0.165-0.048 0.252-0.046c0.121 0 0.1 0.18-0.080 0.46-0.286 0.473-0.499 0.985-0.633 1.52-0.041 0.332-0.166 0.648-0.362 0.92-0.259 0.311-0.534 0.608-0.824 0.89-0.369 0.363-0.766 0.697-1.186 1-0.442 0.34-0.914 0.67-1.397 1-0.457 0.296-0.946 0.541-1.457 0.73-0.444 0.186-0.905 0.33-1.377 0.43-0.501 0.12-1.013 0.19-1.527 0.21-0.401-0.016-0.796-0.104-1.166-0.26-0.455-0.183-0.881-0.428-1.266-0.73-0.371-0.296-0.708-0.631-1.005-1-0.257-0.277-0.422-0.626-0.472-1-0.133-1.184-0.054-2.383 0.231-3.54 0.266-1.053 0.682-2.064 1.236-3 0.524-0.891 1.204-1.68 2.010-2.33 0.789-0.644 1.687-1.142 2.653-1.47 0.349-0.114 0.726-0.114 1.075 0 0.411 0.132 0.803 0.317 1.166 0.55 0.342 0.222 0.65 0.491 0.914 0.8 0.21 0.225 0.338 0.514 0.362 0.82-0.007 0.349-0.096 0.692-0.261 1-0.199 0.404-0.424 0.795-0.673 1.17-0.261 0.4-0.563 0.82-0.874 1.25l-0.904 1.22c-0.281 0.36-0.482 0.48-0.613 0.38s-0.11-0.37 0-0.8c0.101-0.28 0.171-0.5 0.211-0.66 0.036-0.144 0.057-0.292 0.060-0.44 0.002-0.123-0.018-0.245-0.060-0.36-0.042-0.131-0.075-0.265-0.1-0.4-0.019-0.195 0.002-0.393 0.060-0.58 0.071-0.218 0.155-0.432 0.251-0.64 0.1-0.23 0.201-0.47 0.301-0.73 0.104-0.258 0.181-0.526 0.231-0.8-0.773 0.313-1.462 0.803-2.010 1.43-0.661 0.729-1.216 1.547-1.648 2.43-0.469 0.926-0.807 1.912-1.005 2.93-0.208 0.956-0.208 1.944 0 2.9zM65.519 13.908c0.65-0.639 1.345-1.23 2.080-1.77 0.493-0.369 1.053-0.64 1.648-0.8 0.465-0.121 0.957-0.082 1.397 0.11 0.507 0.243 0.961 0.582 1.336 1l0.583-0.87c0.072-0.091 0.17-0.158 0.282-0.192s0.23-0.033 0.341 0.002c0.304 0.047 0.593 0.164 0.844 0.34 0.25 0.16 0.46 0.376 0.613 0.63 0.071 0.090 0.109 0.201 0.109 0.315s-0.039 0.225-0.109 0.315c-0.253 0.35-0.482 0.718-0.683 1.1-0.332 0.58-0.683 1.25-1.005 2s-0.703 1.49-1.005 2.23c-0.263 0.574-0.465 1.174-0.603 1.79-0.017 0.062-0.017 0.128 0 0.19v0.23c0.522-0.298 1.022-0.632 1.497-1 0.553-0.4 1.105-0.81 1.638-1.23l1.517-1.2 1.085-0.88c0.167-0.129 0.349-0.236 0.543-0.32 0.147-0.065 0.298-0.122 0.452-0.17l0.502-0.18c0.217-0.081 0.423-0.189 0.613-0.32 0.151-0.1 0.261-0.13 0.322-0.090s0 0.14-0.090 0.32c-1.005 1.32-2.010 2.6-3.175 3.85-0.312 0.33-0.653 0.71-1.005 1.14-0.383 0.426-0.799 0.821-1.246 1.18-0.423 0.34-0.893 0.616-1.397 0.82-0.478 0.19-1.006 0.211-1.497 0.060-0.704-0.099-1.345-0.455-1.799-1-0.279-0.5-0.348-1.090-0.191-1.64-0.475 0.692-0.985 1.36-1.527 2-0.416 0.525-0.919 0.974-1.487 1.33-1.738 1-3.015 0.67-3.909-1.1-0.199-0.437-0.301-0.911-0.301-1.39-0.016-0.658 0.093-1.313 0.322-1.93 0.273-0.797 0.641-1.56 1.095-2.27 0.631-0.954 1.373-1.83 2.211-2.61v0.010zM66.051 20.158c0.991-1.073 1.943-2.203 2.854-3.39 0.904-1.2 1.769-2.4 2.582-3.62-0.433-0.028-0.863 0.084-1.226 0.32-0.502 0.299-0.983 0.633-1.437 1-0.472 0.37-0.904 0.73-1.296 1.090-0.28 0.233-0.542 0.487-0.784 0.76-0.315 0.36-0.65 0.81-1.005 1.35-0.392 0.55-0.764 1.11-1.105 1.7-0.321 0.523-0.596 1.071-0.824 1.64-0.195 0.347-0.249 0.755-0.151 1.14 0.151 0.23 0.392 0.17 0.744-0.17l1.648-1.82zM94.791 16.388c0.134-0.073 0.275-0.134 0.422-0.18l0.402-0.11 0.493-0.17c0.19-0.080 0.432-0.19 0.713-0.34s0.522-0.28 0.573-0.21 0 0.23-0.312 0.51c-0.512 0.63-1.115 1.32-1.829 2.060s-1.457 1.41-2.221 2.060c-0.714 0.61-1.47 1.171-2.261 1.68-0.585 0.405-1.249 0.685-1.949 0.82-0.815 0.127-1.65 0.026-2.411-0.29-0.645-0.216-1.197-0.642-1.568-1.21-0.264-0.476-0.412-1.007-0.432-1.55-0.051-0.596-0.051-1.194 0-1.79 0.027-0.243 0.124-0.474 0.279-0.663s0.361-0.331 0.595-0.407c0.389-0.177 0.768-0.374 1.136-0.59 0.43-0.258 0.84-0.549 1.225-0.87 0.386-0.344 0.739-0.723 1.055-1.13 0.328-0.351 0.579-0.767 0.733-1.22-0.826 0.256-1.594 0.67-2.261 1.22-0.691 0.528-1.342 1.107-1.949 1.73-0.627 0.636-1.22 1.304-1.779 2-0.603 0.75-1.156 1.46-1.668 2.15s-0.945 1.29-1.296 1.83c-0.352 0.54-0.593 0.87-0.693 1-0.083 0.143-0.196 0.266-0.331 0.36s-0.29 0.16-0.453 0.19c-0.314 0.053-0.635 0.038-0.943-0.045s-0.592-0.231-0.836-0.435c-0.090-0.061-0.155-0.152-0.182-0.257s-0.017-0.216 0.031-0.313l3.597-6.47c-0.692 0.66-1.42 1.281-2.181 1.86-0.768 0.585-1.574 1.119-2.412 1.6-0.311 0.2-0.613 0.39-0.924 0.55s-0.543 0.29-0.703 0.37c-0.161 0.080-0.251 0.080-0.251 0s0.141-0.23 0.422-0.51c0.505-0.491 0.972-1.019 1.397-1.58 0.279-0.367 0.505-0.771 0.673-1.2 0.187-0.493 0.511-0.923 0.935-1.24l2.010-1.81c0.764-0.71 1.588-1.53 2.472-2.45 0.921-0.989 1.758-2.053 2.502-3.18 0.482-1 1.005-2 1.396-3.070s0.835-2.080 1.246-3.080c0.070-0.18 0.221-0.24 0.452-0.19 0.269 0.068 0.515 0.206 0.713 0.4 0.253 0.226 0.47 0.489 0.643 0.78 0.205 0.291 0.294 0.647 0.251 1-0.025 0.416-0.11 0.827-0.251 1.22-0.131 0.4-0.296 0.788-0.493 1.16-0.166 0.351-0.365 0.686-0.593 1-0.201 0.27-0.371 0.48-0.503 0.63-0.221 0.51-0.422 1-0.593 1.32s-0.331 0.71-0.512 1-0.362 0.68-0.533 1c-0.17 0.32-0.402 0.78-0.653 1.26 0.616-0.382 1.261-0.716 1.929-1 0.701-0.269 1.451-0.385 2.2-0.34 0.276 0.015 0.544 0.094 0.784 0.23 0.322 0.153 0.62 0.352 0.884 0.59 0.264 0.237 0.485 0.518 0.653 0.83 0.16 0.286 0.206 0.621 0.131 0.94-0.153 0.526-0.387 1.025-0.694 1.48-0.333 0.518-0.724 0.998-1.165 1.43-0.452 0.42-0.947 0.792-1.477 1.11-0.492 0.333-1.017 0.614-1.567 0.84-0.055 0.399 0.038 0.804 0.261 1.14 0.231 0.38 0.412 0.69 0.542 0.92 0.671-0.142 1.313-0.396 1.899-0.75 0.704-0.41 1.387-0.87 2.071-1.35s1.286-0.94 1.848-1.37c0.406-0.343 0.844-0.648 1.307-0.91v0.010zM101.181 15.548c-0.305 0.439-0.642 0.856-1.005 1.25-0.413 0.43-0.853 0.834-1.316 1.21-0.436 0.368-0.899 0.702-1.386 1-0.389 0.26-0.817 0.459-1.267 0.59 0 0.281 0.020 0.562 0.061 0.84 0.026 0.247 0.112 0.484 0.251 0.69 0.072 0.147 0.188 0.269 0.332 0.349s0.308 0.116 0.472 0.101c0.351-0.033 0.693-0.135 1.005-0.3 0.645-0.328 1.263-0.705 1.848-1.13 0.645-0.454 1.267-0.941 1.859-1.46 0.612-0.54 1.206-1.090 1.779-1.66s1.105-1.11 1.587-1.62c0.201-0.2 0.352-0.27 0.442-0.21s0.081 0.19 0 0.37c-0.241 0.531-0.453 1.075-0.633 1.63-0.141 0.46-0.261 0.84-0.361 1.15-0.104 0.303-0.253 0.59-0.442 0.85-0.278 0.42-0.583 0.821-0.915 1.2-0.397 0.463-0.827 0.897-1.287 1.3-0.479 0.427-1.012 0.79-1.587 1.080-0.571 0.292-1.19 0.479-1.828 0.55-0.681 0.081-1.373-0.008-2.010-0.26-0.842-0.274-1.556-0.843-2.009-1.6-0.401-0.709-0.619-1.506-0.633-2.32-0.024-0.876 0.106-1.748 0.381-2.58 0.252-0.826 0.589-1.623 1.005-2.38 0.213-0.384 0.455-0.752 0.723-1.1 0.31-0.414 0.645-0.808 1.005-1.18 0.339-0.365 0.708-0.699 1.106-1 0.319-0.248 0.696-0.413 1.095-0.48 0.467-0.005 0.926 0.109 1.336 0.33 0.431 0.186 0.831 0.435 1.186 0.74 0.264 0.268 0.415 0.625 0.422 1 0.027 0.365-0.031 0.731-0.171 1.070-0.148 0.347-0.327 0.682-0.532 1l-0.513 0.98zM96.971 16.868c0.619-0.599 1.187-1.248 1.699-1.94 0.529-0.703 0.962-1.473 1.286-2.29-0.267 0.183-0.507 0.401-0.713 0.65-0.241 0.278-0.463 0.572-0.664 0.88-0.211 0.3-0.402 0.6-0.573 0.89s-0.322 0.53-0.422 0.71l-0.613 1.1zM118.203 15.868c0.413-0.3 0.643-0.43 0.694-0.36s-0.091 0.28-0.422 0.66c-0.613 0.74-1.246 1.48-1.91 2.21s-1.326 1.43-2.009 2.080c-0.634 0.616-1.305 1.194-2.010 1.73-0.611 0.472-1.289 0.856-2.009 1.14-0.201 0.535-0.558 0.999-1.025 1.332s-1.023 0.52-1.598 0.538c-0.584 0.019-1.165-0.083-1.708-0.3-0.586-0.223-1.12-0.563-1.568-1-0.142-0.154-0.27-0.322-0.381-0.5-0.125-0.198-0.221-0.413-0.281-0.64-0.069-0.209-0.088-0.432-0.061-0.65 0.018-0.108 0.057-0.212 0.115-0.305s0.136-0.173 0.227-0.235c0.136-0.11 0.307-0.17 0.482-0.17 0.211 0 0.443 0 0.684 0s0.472 0 0.693 0.080l0.513 0.090c0.361 0 0.693 0 1.005 0 0.313 0.002 0.627-0.021 0.935-0.070 0.080-0.381 0.121-0.77 0.12-1.16v-1.070c0-0.69 0-1.38 0-2.080s-0.1-1.4-0.171-2.11c-0.922 0.992-1.898 1.934-2.924 2.82-1.065 0.91-2.010 1.7-2.854 2.36-0.362 0.28-0.523 0.32-0.503 0.13 0.061-0.258 0.181-0.498 0.352-0.7 0.176-0.231 0.328-0.479 0.452-0.74 0.126-0.257 0.237-0.52 0.332-0.79l0.241-0.68c0.061-0.178 0.168-0.337 0.312-0.46 0.332-0.33 0.884-1 1.668-1.86 0.938-1.16 1.776-2.398 2.502-3.7 0.047-0.085 0.12-0.153 0.209-0.195s0.188-0.054 0.284-0.035c0.246 0.034 0.483 0.119 0.693 0.25 0.232 0.141 0.443 0.309 0.633 0.5 0.151 0.122 0.262 0.286 0.322 0.47 0.231 1.35 0.442 2.74 0.632 4.19 0.189 1.416 0.222 2.847 0.101 4.27 0.541-0.274 1.046-0.609 1.507-1 0.522-0.42 1.005-0.85 1.528-1.28s1.005-0.84 1.437-1.22c0.387-0.33 0.812-0.612 1.266-0.84 0.282-0.12 0.533-0.22 0.764-0.3 0.265-0.088 0.514-0.22 0.733-0.39v-0.010z"></path>
</symbol>
<symbol id="icon-captain" viewBox="0 0 109 32">
<path d="M4.888 31.041c-1.81 0-3.066-0.369-3.786-1.115-0.815-1.044-1.201-2.358-1.080-3.675v-22.429c-0.038-0.521 0.036-1.044 0.217-1.534s0.466-0.936 0.834-1.307c0.704-0.652 1.638-1.001 2.598-0.97h8.204l1.080 5.818h-5.976c-0.37 0-0.555 0.194-0.555 0.601v18.23c0 0.407 0.185 0.601 0.555 0.601h5.976l-1.119 5.818-6.949-0.039zM21.092 27.162l-0.564 3.879h-6.277l5.625-31.030h6.657l5.606 31.030h-6.248l-0.564-3.879h-4.233zM21.773 22.236h2.92l-1.47-10.967-1.45 10.967zM46.113 0.010c0.51-0.039 1.021 0.033 1.5 0.211s0.913 0.456 1.274 0.817c0.642 0.764 0.972 1.74 0.925 2.735v14.856c0.003 0.555-0.062 1.109-0.195 1.648-0.126 0.488-0.37 0.937-0.71 1.309-0.382 0.395-0.852 0.694-1.372 0.873-0.692 0.232-1.42 0.34-2.151 0.32h-5.324v8.262h-6.19v-31.030h12.243zM40.060 5.45v12.189h3.095c0.253 0 0.418-0.049 0.487-0.145 0.087-0.149 0.125-0.323 0.107-0.494v-10.958c0-0.398-0.185-0.592-0.555-0.592h-3.134zM64.672 0.010l1.528 5.818h-4.146v25.212h-6.355v-25.212h-4.165l1.625-5.818h11.513zM71.339 27.162l-0.555 3.879h-6.277l5.586-31.030h6.667l5.625 31.030h-6.238l-0.555-3.879h-4.253zM72.040 22.313h2.92l-1.47-11.045-1.45 11.045zM84.127 0.010h6.229v31.030h-6.229v-31.030zM92.944 0.010h5.927l3.182 12.451v-12.451h6.404v31.030h-6.404l-3.348-12.965v12.965h-5.761v-31.030z"></path>
</symbol>
<symbol id="icon-antartica" viewBox="0 0 118 32">
<path d="M18.858 26.181c-0.159 0.061-0.327 0.094-0.497 0.097l-1.88 0.058h-1.617c-1.327 1.473-2.912 2.696-4.677 3.607-1.258 0.621-2.649 0.928-4.053 0.892-0.864-0.023-1.718-0.18-2.533-0.465-0.742-0.254-1.427-0.649-2.017-1.164-0.542-0.464-0.972-1.044-1.257-1.697-0.285-0.673-0.386-1.409-0.292-2.133 0.064-1.082 0.447-2.12 1.101-2.987 0.514-0.638 1.185-1.133 1.949-1.435 0.693-0.258 1.435-0.364 2.173-0.31 0.579 0.033 1.152 0.137 1.705 0.31 0.346 0.144 0.637 0.396 0.828 0.718 0.154 0.253 0.22 0.55 0.185 0.844-0.023 0.127-0.071 0.248-0.141 0.356s-0.161 0.201-0.268 0.274c-0.133 0.072-0.282 0.11-0.434 0.11s-0.301-0.038-0.434-0.11c-0.506-0.236-1.082-0.278-1.617-0.116-0.458 0.153-0.864 0.432-1.169 0.805-0.299 0.385-0.497 0.838-0.575 1.319-0.097 0.482-0.060 0.982 0.107 1.445 0.187 0.484 0.53 0.893 0.974 1.164 0.589 0.344 1.267 0.506 1.949 0.465 1.54-0.103 2.996-0.734 4.121-1.784-0.565 0-0.916-0.175-1.052-0.427-0.073-0.129-0.112-0.274-0.112-0.422s0.039-0.293 0.112-0.422c0.201-0.347 0.477-0.646 0.809-0.873 0.362-0.261 0.791-0.416 1.237-0.446h0.711c0.302 0 0.643 0 1.033 0 1.468-1.651 2.828-3.394 4.073-5.217 1.403-2.036 2.767-4.092 4.141-6.196s2.631-4.179 3.897-6.216c1.267-2.036 2.543-3.879 3.741-5.469 0.274-0.369 0.677-0.622 1.13-0.708 0.391-0.090 0.801-0.053 1.169 0.107 0.166 0.078 0.313 0.19 0.432 0.329s0.208 0.301 0.26 0.476c0.054 0.218 0.059 0.445 0.013 0.665s-0.14 0.427-0.276 0.605c-1.023 1.581-2.027 3.316-3.030 5.217s-1.949 3.821-2.777 5.75c-0.828 1.93-1.637 3.801-2.26 5.595-0.585 1.558-1.070 3.151-1.452 4.771-0.288 1.091-0.419 2.218-0.39 3.345 0.068 0.853 0.38 1.27 0.974 1.27 0.267-0.010 0.53-0.062 0.78-0.155 0.334-0.116 0.66-0.255 0.974-0.417 0.339-0.188 0.664-0.399 0.974-0.63 0.32-0.226 0.62-0.479 0.896-0.756l1.257-1.27c0.366-0.392 0.711-0.803 1.033-1.232 0.077-0.125 0.184-0.229 0.312-0.302s0.272-0.113 0.419-0.115c0.303-0.023 0.606 0.037 0.877 0.175 0.254 0.115 0.46 0.314 0.585 0.562 0.057 0.125 0.074 0.264 0.050 0.399s-0.089 0.26-0.186 0.357l-1.208 1.445c-0.507 0.611-1.15 1.299-1.949 2.075-0.507 0.475-0.974 0.882-1.384 1.202-0.389 0.312-0.81 0.582-1.257 0.805-0.41 0.205-0.846 0.355-1.296 0.446-0.504 0.094-1.017 0.139-1.53 0.136-0.524 0.044-1.051-0.053-1.524-0.282s-0.876-0.58-1.165-1.018c-0.562-1.049-0.796-2.241-0.672-3.423zM19.17 23.728c0.452-1.962 1.105-3.872 1.949-5.702-0.711 1.125-1.413 2.172-2.085 3.122s-1.315 1.823-1.949 2.628c0.419 0 0.809-0.049 1.169-0.049h0.916zM31.583 17.716c0.074-0.141 0.183-0.262 0.315-0.352s0.285-0.145 0.445-0.162c0.376-0.083 0.765-0.083 1.14 0 0.347 0.073 0.665 0.245 0.916 0.495 0.117 0.114 0.194 0.262 0.219 0.423s-0.004 0.326-0.083 0.469l-0.263 0.533 0.175-0.136c0.635-0.588 1.362-1.070 2.153-1.425 0.481-0.222 1.011-0.316 1.539-0.271 0.413 0.051 0.795 0.243 1.082 0.543 0.303 0.297 0.55 0.645 0.731 1.028 0.265 0.636 0.265 1.352 0 1.988-0.311 0.854-0.693 1.681-1.14 2.473-0.331 0.659-0.672 1.27-1.033 1.852s-0.711 1.183-1.072 1.804c-0.138 0.191-0.222 0.415-0.244 0.65 0 0.107 0.088 0.136 0.224 0.107 0.163-0.046 0.32-0.111 0.468-0.194 0.169-0.103 0.332-0.216 0.487-0.339 0.692-0.53 1.343-1.11 1.949-1.736 0.551-0.55 1.068-1.133 1.549-1.745 0.078-0.133 0.189-0.243 0.322-0.321s0.284-0.121 0.438-0.125c0.293-0.023 0.588 0.037 0.848 0.175 0.244 0.122 0.443 0.319 0.565 0.562 0.057 0.122 0.079 0.257 0.064 0.39s-0.068 0.26-0.151 0.366c-0.156 0.175-0.351 0.436-0.604 0.776s-0.546 0.708-0.877 1.096-0.692 0.785-1.101 1.202c-0.409 0.417-0.809 0.805-1.228 1.164-0.641 0.601-1.374 1.095-2.173 1.464-0.534 0.249-1.116 0.378-1.705 0.378-0.445 0.005-0.878-0.142-1.228-0.417-0.326-0.262-0.589-0.593-0.77-0.97-0.282-0.609-0.321-1.303-0.107-1.939 0.284-0.874 0.652-1.718 1.101-2.521 0.117-0.233 0.263-0.514 0.448-0.844s0.361-0.659 0.555-0.97c0.195-0.31 0.37-0.669 0.536-0.97 0.139-0.268 0.295-0.527 0.468-0.776 0.185-0.33 0.253-0.543 0.224-0.65s-0.127-0.136-0.283-0.107c-0.196 0.041-0.385 0.107-0.565 0.194-0.205 0.107-0.4 0.223-0.585 0.339-0.477 0.33-0.974 0.689-1.471 1.086-0.488 0.383-0.953 0.795-1.393 1.232-0.302 0.708-0.604 1.425-0.916 2.143l-0.877 2.007c-0.273 0.621-0.497 1.154-0.692 1.6s-0.341 0.756-0.429 0.97c-0.092 0.197-0.227 0.371-0.396 0.508s-0.366 0.236-0.578 0.287c-0.415 0.131-0.861 0.131-1.276 0-0.393-0.124-0.721-0.395-0.916-0.756-0.104-0.223-0.151-0.469-0.136-0.714s0.092-0.483 0.224-0.692c0.263-0.592 0.633-1.377 1.091-2.337s0.974-1.939 1.442-3.035l1.432-3.103c0.409-1.134 0.809-1.988 1.14-2.705v0.010zM48.644 16.601l-3.722 6.497c-0.322 0.592-0.643 1.164-0.974 1.697-0.288 0.474-0.545 0.967-0.77 1.474-0.164 0.367-0.298 0.746-0.399 1.135-0.078 0.31-0.039 0.524 0.117 0.64 0.085 0.079 0.19 0.132 0.304 0.152s0.232 0.008 0.339-0.036c0.321-0.091 0.624-0.236 0.896-0.427 0.312-0.204 0.633-0.446 0.974-0.708s0.624-0.533 0.896-0.805l1.257-1.27c0.366-0.392 0.711-0.803 1.033-1.232 0.077-0.125 0.184-0.229 0.312-0.302s0.272-0.113 0.419-0.115c0.303-0.023 0.606 0.037 0.877 0.175 0.254 0.115 0.46 0.314 0.585 0.562 0.057 0.125 0.074 0.264 0.050 0.399s-0.089 0.26-0.186 0.357c-0.302 0.388-0.701 0.873-1.208 1.474s-1.15 1.27-1.949 2.046c-0.507 0.475-0.974 0.882-1.384 1.202-0.389 0.312-0.81 0.582-1.257 0.805-0.41 0.205-0.846 0.355-1.296 0.446-0.488 0.093-0.984 0.138-1.481 0.136-1.53 0-2.416-0.621-2.67-1.852s0.234-2.909 1.461-4.926c0.146-0.271 0.37-0.669 0.672-1.202s0.643-1.144 1.052-1.833l1.276-2.182c0.448-0.776 0.877-1.532 1.296-2.279-0.252 0.031-0.506 0.047-0.76 0.049h-0.809c-0.624 0-1.033-0.126-1.208-0.378-0.087-0.127-0.138-0.276-0.147-0.43s0.025-0.307 0.098-0.443c0.188-0.362 0.467-0.669 0.809-0.892 0.383-0.264 0.831-0.418 1.296-0.446h0.974c0.39 0 0.818 0 1.296 0l0.974-1.61c0.223-0.403 0.593-0.704 1.033-0.844 0.381-0.119 0.789-0.119 1.169 0 0.327 0.095 0.606 0.31 0.78 0.601 0.077 0.152 0.112 0.322 0.102 0.493s-0.065 0.335-0.16 0.477l-0.448 0.756h1.247c0.324 0.025 0.65 0.025 0.974 0 0.448 0 0.711 0.136 0.809 0.388 0.043 0.14 0.056 0.287 0.039 0.432s-0.063 0.285-0.137 0.412c-0.17 0.345-0.413 0.649-0.711 0.892-0.296 0.269-0.681 0.421-1.082 0.427l-2.66 0.087zM62.811 23.728c0.088-0.126 0.204-0.229 0.339-0.302s0.286-0.112 0.44-0.115c0.303-0.021 0.606 0.039 0.877 0.174 0.25 0.121 0.454 0.318 0.585 0.562 0.055 0.125 0.072 0.264 0.048 0.399s-0.088 0.259-0.184 0.358c-0.156 0.175-0.351 0.436-0.604 0.776s-0.555 0.708-0.896 1.096l-1.052 1.193c-0.381 0.41-0.784 0.798-1.208 1.164-0.636 0.598-1.363 1.092-2.153 1.464-0.516 0.248-1.084 0.37-1.656 0.359-0.441-0.015-0.864-0.171-1.208-0.446-0.333-0.276-0.619-0.604-0.848-0.97l-1.549 0.97c-0.771 0.377-1.627 0.547-2.485 0.494-0.709 0.016-1.409-0.169-2.017-0.533-0.572-0.36-1.013-0.894-1.257-1.522-0.282-0.745-0.376-1.548-0.273-2.337 0.136-1.046 0.481-2.055 1.013-2.967 0.534-1.024 1.221-1.962 2.036-2.783 0.727-0.73 1.531-1.38 2.397-1.939 0.734-0.472 1.527-0.846 2.358-1.115 0.628-0.216 1.285-0.337 1.949-0.359 0.331-0.004 0.661 0.049 0.974 0.155 0.272 0.101 0.533 0.227 0.78 0.378 0.245 0.15 0.471 0.329 0.672 0.533 0.192-0.36 0.512-0.636 0.896-0.776 0.39-0.165 0.816-0.228 1.237-0.184 0.33 0.028 0.637 0.181 0.857 0.427 0.185 0.242 0.166 0.562-0.068 0.97l-0.896 1.765c-0.361 0.698-0.731 1.416-1.12 2.143l-1.101 2.046c-0.252 0.473-0.529 0.932-0.828 1.377-0.143 0.201-0.215 0.443-0.205 0.689 0 0.136 0.175 0.194 0.38 0.184 0.256-0.031 0.502-0.117 0.721-0.252 0.299-0.166 0.571-0.375 0.809-0.621 0.507-0.533 0.916-0.97 1.228-1.27 0.371-0.368 0.71-0.767 1.013-1.193v0.010zM56.224 24.969c0.425-0.524 0.791-1.093 1.091-1.697 0.258-0.514 0.469-1.049 0.633-1.6 0.128-0.424 0.181-0.867 0.156-1.309-0.003-0.159-0.041-0.315-0.112-0.458s-0.172-0.268-0.297-0.366c-0.133-0.088-0.284-0.148-0.441-0.175s-0.319-0.020-0.475 0.019c-0.43 0.098-0.84 0.272-1.208 0.514-0.482 0.311-0.933 0.668-1.345 1.067-0.489 0.476-0.944 0.985-1.364 1.522-0.422 0.553-0.797 1.14-1.12 1.755-0.274 0.502-0.493 1.032-0.653 1.581-0.126 0.421-0.173 0.862-0.136 1.299 0.011 0.159 0.054 0.315 0.128 0.456s0.176 0.267 0.3 0.368c0.124 0.091 0.267 0.154 0.419 0.185s0.308 0.027 0.458-0.010c0.436-0.085 0.852-0.249 1.228-0.485 0.494-0.306 0.952-0.667 1.364-1.076 0.503-0.49 0.962-1.022 1.374-1.59zM62.811 23.718c0.706-0.81 1.357-1.665 1.949-2.56 0.682-1.028 1.315-1.939 1.88-2.832-0.379-0.485-0.66-1.038-0.828-1.629-0.195-0.629-0.3-1.282-0.312-1.939-0.020-0.626 0.063-1.252 0.244-1.852 0.173-0.554 0.514-1.041 0.974-1.396 0.526-0.456 1.185-0.732 1.88-0.785 0.546-0.025 1.083 0.14 1.52 0.465 0.428 0.372 0.731 0.866 0.867 1.416 0.196 0.594 0.237 1.228 0.117 1.842-0.087 0.464-0.238 0.915-0.448 1.338-0.244 0.514-0.526 1.057-0.848 1.658 0.398 0.088 0.81 0.088 1.208 0 0.4-0.096 0.819-0.076 1.208 0.058 0.302 0.112 0.565 0.307 0.76 0.562 0.178 0.219 0.275 0.494 0.273 0.776 0.003 0.129-0.019 0.256-0.066 0.376s-0.117 0.229-0.207 0.322c-0.117 0.116-0.361 0.388-0.711 0.795s-0.77 0.921-1.237 1.493c-0.468 0.572-0.974 1.202-1.413 1.852-0.441 0.603-0.851 1.227-1.228 1.872-0.306 0.503-0.561 1.036-0.76 1.59-0.166 0.456-0.146 0.766 0.058 0.912 0.199 0.148 0.438 0.234 0.686 0.246s0.494-0.050 0.707-0.178c0.674-0.278 1.307-0.647 1.88-1.096 0.689-0.502 1.34-1.053 1.949-1.648 0.54-0.511 1.048-1.055 1.52-1.629 0.1-0.112 0.221-0.203 0.356-0.268s0.283-0.102 0.433-0.11c0.291-0.015 0.581 0.038 0.848 0.155 0.243 0.115 0.442 0.305 0.565 0.543 0.055 0.125 0.072 0.264 0.048 0.399s-0.088 0.259-0.184 0.357c-0.594 0.781-1.245 1.516-1.949 2.201-0.823 0.857-1.738 1.621-2.728 2.279-0.939 0.641-1.975 1.129-3.069 1.445-0.48 0.154-0.986 0.21-1.488 0.165s-0.99-0.19-1.435-0.426c-0.362-0.161-0.673-0.416-0.901-0.739s-0.364-0.7-0.395-1.094c-0.080-0.922 0.074-1.849 0.448-2.696 0.423-1.037 0.98-2.015 1.656-2.909 0.666-0.929 1.448-1.77 2.329-2.502 0.153-0.112 0.282-0.254 0.38-0.417 0-0.078-0.292-0.233-0.916-0.475-0.75 1.164-1.471 2.23-2.173 3.21s-1.179 1.639-1.413 1.939c-0.094 0.134-0.218 0.246-0.361 0.326s-0.303 0.128-0.467 0.139c-0.291 0.026-0.582-0.046-0.828-0.204-0.233-0.139-0.415-0.35-0.516-0.601-0.050-0.125-0.063-0.261-0.039-0.393s0.085-0.255 0.175-0.354zM68.549 12.974c-0.111-0.003-0.222 0.021-0.321 0.072s-0.183 0.126-0.245 0.219c-0.144 0.229-0.234 0.488-0.263 0.756-0.049 0.321-0.049 0.648 0 0.97 0.058 0.361 0.18 0.709 0.361 1.028 0.175-0.359 0.341-0.718 0.487-1.076 0.138-0.313 0.245-0.637 0.322-0.97 0.059-0.242 0.059-0.495 0-0.737-0.022-0.074-0.067-0.138-0.128-0.185s-0.135-0.074-0.213-0.077zM81.937 16.591l-3.722 6.507c-0.331 0.592-0.653 1.164-0.974 1.697-0.282 0.476-0.535 0.968-0.76 1.474-0.168 0.365-0.302 0.745-0.4 1.135-0.078 0.31 0 0.524 0.107 0.64 0.087 0.078 0.194 0.131 0.31 0.152s0.235 0.008 0.343-0.035c0.321-0.091 0.624-0.236 0.896-0.427 0.312-0.204 0.633-0.446 0.974-0.708s0.624-0.533 0.896-0.805c0.536-0.533 0.974-0.97 1.247-1.27 0.355-0.391 0.687-0.802 0.994-1.232 0.080-0.136 0.193-0.248 0.33-0.326s0.292-0.12 0.449-0.12c0.303-0.021 0.606 0.039 0.877 0.175 0.25 0.121 0.454 0.318 0.585 0.562 0.055 0.125 0.072 0.264 0.048 0.399s-0.088 0.259-0.184 0.357c-0.302 0.388-0.701 0.873-1.208 1.474s-1.15 1.27-1.949 2.046c-0.507 0.475-0.974 0.882-1.393 1.202-0.387 0.31-0.805 0.58-1.247 0.805-0.414 0.205-0.853 0.355-1.306 0.446-0.488 0.093-0.984 0.138-1.481 0.136-1.52 0-2.407-0.621-2.66-1.852s0.234-2.909 1.452-4.926c0.156-0.271 0.38-0.669 0.672-1.202l1.052-1.833c0.409-0.679 0.828-1.406 1.276-2.182s0.887-1.532 1.306-2.279c-0.252 0.031-0.506 0.047-0.76 0.049h-0.809c-0.633 0-1.033-0.126-1.208-0.378-0.082-0.131-0.126-0.282-0.126-0.436s0.044-0.305 0.126-0.436c0.185-0.364 0.464-0.672 0.809-0.892 0.383-0.264 0.831-0.418 1.296-0.446h0.974c0.39 0 0.818 0 1.296 0l0.974-1.61c0.22-0.379 0.569-0.668 0.984-0.815 0.381-0.119 0.789-0.119 1.169 0 0.324 0.101 0.601 0.314 0.779 0.601 0.075 0.153 0.109 0.324 0.097 0.494s-0.069 0.334-0.165 0.476l-0.448 0.756h1.257c0.325 0.025 0.65 0.025 0.974 0 0.449 0 0.712 0.136 0.799 0.388 0.045 0.139 0.060 0.286 0.045 0.431s-0.061 0.286-0.133 0.413c-0.173 0.342-0.415 0.646-0.712 0.892-0.307 0.265-0.703 0.407-1.111 0.398l-2.64 0.107zM89.381 23.718c0.077-0.125 0.184-0.229 0.312-0.302s0.272-0.113 0.419-0.115c0.303-0.023 0.606 0.037 0.877 0.175 0.253 0.115 0.46 0.314 0.584 0.562 0.056 0.125 0.074 0.264 0.050 0.399s-0.089 0.26-0.186 0.357c-0.302 0.388-0.692 0.873-1.189 1.474-0.61 0.718-1.261 1.401-1.949 2.046-0.506 0.475-0.974 0.882-1.384 1.202-0.389 0.312-0.81 0.582-1.256 0.805-0.411 0.205-0.846 0.355-1.296 0.446-0.488 0.093-0.984 0.138-1.481 0.136-1.53 0-2.416-0.621-2.67-1.852s0.234-2.909 1.461-4.926c0.263-0.446 0.546-0.97 0.848-1.493s0.604-1.096 0.916-1.629l0.896-1.513c0.283-0.475 0.536-0.882 0.741-1.212 0.228-0.393 0.597-0.687 1.032-0.824 0.371-0.117 0.769-0.117 1.14 0 0.324 0.105 0.602 0.317 0.789 0.601 0.078 0.154 0.111 0.327 0.094 0.499s-0.084 0.335-0.192 0.471c-0.322 0.572-0.701 1.232-1.12 1.988l-1.072 2.085c-0.322 0.592-0.643 1.164-0.974 1.697-0.289 0.474-0.546 0.967-0.77 1.474-0.164 0.367-0.298 0.746-0.4 1.135-0.078 0.31-0.039 0.524 0.117 0.64 0.085 0.079 0.19 0.132 0.304 0.152s0.232 0.008 0.339-0.036c0.345-0.090 0.675-0.234 0.974-0.427 0.337-0.219 0.662-0.456 0.974-0.708 0.322-0.272 0.623-0.533 0.896-0.805l1.208-1.27c0.343-0.394 0.664-0.805 0.965-1.232zM91.213 13.779c-0.164 0.28-0.365 0.537-0.595 0.766-0.183 0.187-0.375 0.365-0.575 0.533-0.376 0.229-0.787 0.393-1.218 0.485-0.343 0.091-0.702 0.108-1.053 0.048-0.126-0.018-0.246-0.068-0.347-0.147s-0.179-0.181-0.227-0.299c-0.107-0.233 0-0.562 0.243-0.97 0.121-0.236 0.254-0.466 0.399-0.688 0.185-0.281 0.341-0.543 0.498-0.785 0.107-0.17 0.249-0.316 0.418-0.428s0.357-0.187 0.557-0.222c0.389-0.071 0.79-0.048 1.169 0.068 0.334 0.107 0.618 0.331 0.799 0.63 0.083 0.158 0.12 0.336 0.108 0.514s-0.072 0.349-0.176 0.495zM89.741 22.875c0.531-0.951 1.187-1.828 1.949-2.608 0.723-0.713 1.536-1.332 2.416-1.842 0.772-0.456 1.626-0.758 2.514-0.892 0.79-0.118 1.597-0.042 2.349 0.223 0.276 0.081 0.525 0.236 0.719 0.448s0.326 0.473 0.381 0.754c0.066 0.584-0.021 1.175-0.253 1.716-0.231 0.629-0.56 1.218-0.974 1.746-0.364 0.461-0.772 0.887-1.218 1.27-0.266 0.24-0.616 0.369-0.974 0.359-0.32-0.022-0.626-0.141-0.877-0.339-0.225-0.179-0.393-0.418-0.488-0.689-0.046-0.115-0.055-0.243-0.023-0.363s0.101-0.228 0.198-0.306l0.76-0.756c0.276-0.273 0.533-0.565 0.77-0.873 0.168-0.207 0.288-0.449 0.35-0.708 0-0.194-0.097-0.291-0.399-0.291-0.367 0.019-0.723 0.132-1.032 0.33-0.443 0.271-0.849 0.597-1.208 0.97-0.455 0.436-0.875 0.906-1.257 1.406-0.432 0.547-0.819 1.128-1.16 1.736-0.41 0.637-0.608 1.387-0.565 2.143 0.025 0.282 0.108 0.556 0.243 0.804s0.322 0.467 0.547 0.64c0.511 0.317 1.117 0.448 1.715 0.369 0.896-0.101 1.754-0.413 2.504-0.912 0.387-0.232 0.76-0.485 1.12-0.756 0.39-0.301 0.76-0.611 1.121-0.97s0.691-0.65 0.974-0.97c0.27-0.275 0.525-0.566 0.76-0.873 0.077-0.123 0.183-0.225 0.308-0.298s0.268-0.114 0.413-0.119c0.284-0.019 0.569 0.035 0.828 0.155 0.248 0.112 0.448 0.308 0.565 0.553 0.058 0.127 0.080 0.268 0.062 0.406s-0.072 0.27-0.16 0.379c-0.219 0.317-0.456 0.622-0.711 0.912-0.302 0.339-0.643 0.708-1.033 1.096s-0.798 0.766-1.228 1.154c-0.429 0.388-0.877 0.747-1.325 1.076-0.792 0.639-1.697 1.123-2.669 1.425-0.835 0.251-1.701 0.379-2.573 0.378-0.737 0.001-1.468-0.138-2.153-0.407-0.541-0.192-1.019-0.528-1.384-0.97-0.365-0.449-0.619-0.977-0.74-1.542-0.124-0.544-0.167-1.102-0.127-1.658 0.040-0.588 0.145-1.17 0.312-1.736 0.155-0.547 0.375-1.075 0.653-1.571zM114.918 23.718c0.088-0.126 0.204-0.229 0.339-0.302s0.286-0.112 0.44-0.115c0.303-0.022 0.606 0.038 0.877 0.175 0.253 0.115 0.46 0.314 0.584 0.562 0.056 0.125 0.072 0.264 0.048 0.399s-0.088 0.259-0.184 0.358c-0.146 0.175-0.35 0.436-0.604 0.776s-0.555 0.708-0.896 1.096c-0.341 0.388-0.712 0.785-1.101 1.202-0.381 0.41-0.784 0.798-1.208 1.164-0.631 0.596-1.351 1.090-2.134 1.464-0.517 0.248-1.084 0.37-1.656 0.359-0.44-0.015-0.865-0.171-1.208-0.446-0.333-0.276-0.619-0.604-0.848-0.97l-1.549 0.97c-0.771 0.377-1.628 0.547-2.485 0.494-0.709 0.016-1.409-0.169-2.017-0.533-0.57-0.363-1.011-0.896-1.256-1.522-0.279-0.746-0.37-1.548-0.264-2.337 0.119-1.045 0.451-2.054 0.974-2.967 0.538-1.025 1.228-1.963 2.046-2.783 0.723-0.734 1.527-1.385 2.397-1.939 0.73-0.473 1.519-0.848 2.349-1.115 0.627-0.216 1.284-0.337 1.949-0.359 0.331-0.005 0.66 0.048 0.974 0.155 0.274 0.102 0.538 0.229 0.789 0.378 0.28 0.152 0.541 0.334 0.78 0.543 0.189-0.362 0.509-0.639 0.896-0.776 0.371-0.157 0.776-0.22 1.179-0.184 0.33 0.026 0.638 0.179 0.857 0.427 0.195 0.242 0.166 0.562-0.068 0.97s-0.536 1.067-0.896 1.765-0.731 1.416-1.121 2.143c-0.39 0.727-0.75 1.406-1.101 2.046-0.248 0.485-0.525 0.954-0.829 1.406-0.175 0.33-0.243 0.553-0.195 0.689s0.166 0.194 0.38 0.184c0.253-0.031 0.495-0.117 0.712-0.252 0.299-0.166 0.571-0.375 0.808-0.621 0.507-0.533 0.916-0.97 1.228-1.27 0.376-0.378 0.715-0.79 1.013-1.232zM108.332 24.969c0.808-0.977 1.41-2.104 1.773-3.316 0.126-0.421 0.179-0.861 0.156-1.299-0.004-0.158-0.041-0.313-0.11-0.455s-0.168-0.268-0.29-0.369c-0.141-0.096-0.301-0.159-0.469-0.186s-0.341-0.016-0.505 0.031c-0.429 0.1-0.839 0.274-1.208 0.514-0.483 0.311-0.933 0.668-1.345 1.067-0.486 0.479-0.941 0.987-1.364 1.522-0.419 0.558-0.794 1.148-1.121 1.765-0.275 0.502-0.493 1.032-0.653 1.581-0.124 0.421-0.167 0.862-0.126 1.299 0.008 0.159 0.051 0.314 0.123 0.456s0.173 0.267 0.296 0.369c0.125 0.090 0.269 0.152 0.419 0.183s0.308 0.027 0.458-0.008c0.435-0.085 0.851-0.249 1.228-0.485 0.495-0.308 0.956-0.669 1.373-1.076 0.497-0.493 0.953-1.025 1.364-1.59z"></path>
</symbol>
</defs>
</svg>
